<svg width="237" height="65" viewBox="0 0 237 65" fill="none" xmlns="http://www.w3.org/2000/svg">
<path d="M14.312 52.184C16.76 52.808 18.616 53.336 18.616 55.896C18.616 57.72 17.24 59.24 14.36 59.24C11.56 59.24 9.432 57.784 9.32 55.192H11.224C11.32 56.648 12.312 57.608 14.36 57.608C16.056 57.608 16.712 56.856 16.712 55.976C16.712 54.616 15.736 54.36 13.48 53.8C11.688 53.352 9.752 52.664 9.752 50.488C9.752 48.456 11.32 47.32 13.816 47.32C16.328 47.32 18.152 48.632 18.312 50.984H16.408C16.232 49.656 15.4 48.952 13.816 48.952C12.456 48.952 11.64 49.464 11.64 50.312C11.64 51.56 12.712 51.784 14.312 52.184ZM23.6363 59.24C21.0763 59.24 19.5243 57.464 19.5243 54.92C19.5243 52.376 21.0763 50.6 23.6363 50.6C26.1963 50.6 27.7483 52.376 27.7483 54.92C27.7483 57.464 26.1963 59.24 23.6363 59.24ZM23.6363 57.864C25.2363 57.864 26.0683 56.6 26.0683 54.92C26.0683 53.224 25.2363 51.976 23.6363 51.976C22.0363 51.976 21.2043 53.224 21.2043 54.92C21.2043 56.6 22.0363 57.864 23.6363 57.864ZM28.9414 47.56H30.6374V59H28.9414V47.56ZM37.6448 50.824H39.3248V59H37.6448V57.944H37.6128C37.1808 58.584 36.3328 59.224 34.9248 59.224C33.4048 59.224 32.2048 58.344 32.2048 56.472V50.824H33.9008V55.992C33.9008 57.096 34.3648 57.8 35.5168 57.8C36.8128 57.8 37.6448 57.016 37.6448 55.8V50.824ZM44.829 52.2H43.293V56.632C43.293 57.56 43.741 57.672 44.829 57.608V58.984C44.493 59.064 44.125 59.112 43.677 59.112C42.333 59.112 41.597 58.504 41.597 56.776V52.2H40.413V50.824H41.597V48.248H43.293V50.824H44.829V52.2ZM46.994 49.448C46.53 49.448 46.05 49.128 46.05 48.552C46.05 47.976 46.53 47.672 46.994 47.672C47.49 47.672 47.954 47.976 47.954 48.552C47.954 49.128 47.49 49.448 46.994 49.448ZM46.162 50.824H47.842V59H46.162V50.824ZM53.23 59.24C50.67 59.24 49.118 57.464 49.118 54.92C49.118 52.376 50.67 50.6 53.23 50.6C55.79 50.6 57.342 52.376 57.342 54.92C57.342 57.464 55.79 59.24 53.23 59.24ZM53.23 57.864C54.83 57.864 55.662 56.6 55.662 54.92C55.662 53.224 54.83 51.976 53.23 51.976C51.63 51.976 50.798 53.224 50.798 54.92C50.798 56.6 51.63 57.864 53.23 57.864ZM62.9031 50.6C64.4231 50.6 65.6231 51.48 65.6231 53.352V59H63.9271V53.832C63.9271 52.728 63.4631 52.024 62.3111 52.024C61.0151 52.024 60.1831 52.808 60.1831 54.024V59H58.5031V50.824H60.1831V51.88H60.2151C60.6471 51.24 61.4951 50.6 62.9031 50.6ZM74.0623 48.936C72.9743 48.888 72.5583 49 72.5583 49.928V50.824H74.0623V52.2H72.5583V59H70.8623V52.2H69.6943V50.824H70.8623V49.784C70.8623 48.056 71.5983 47.448 72.9423 47.448C73.3583 47.448 73.7263 47.496 74.0623 47.56V48.936ZM78.6206 59.24C76.0606 59.24 74.5086 57.464 74.5086 54.92C74.5086 52.376 76.0606 50.6 78.6206 50.6C81.1806 50.6 82.7326 52.376 82.7326 54.92C82.7326 57.464 81.1806 59.24 78.6206 59.24ZM78.6206 57.864C80.2206 57.864 81.0526 56.6 81.0526 54.92C81.0526 53.224 80.2206 51.976 78.6206 51.976C77.0206 51.976 76.1886 53.224 76.1886 54.92C76.1886 56.6 77.0206 57.864 78.6206 57.864ZM87.7818 50.632C88.0698 50.632 88.2778 50.648 88.5178 50.68V52.264H88.4858C86.8698 51.992 85.5738 53.08 85.5738 54.824V59H83.8938V50.824H85.5738V52.36H85.6058C86.0378 51.336 86.7098 50.632 87.7818 50.632ZM99.4758 56.296H94.8038L93.8758 59H91.9398L96.1478 47.56H98.1478L102.34 59H100.404L99.4758 56.296ZM95.3318 54.712H98.9638L97.1718 49.304H97.1398L95.3318 54.712ZM108.364 50.824H110.044V59H108.364V57.944H108.332C107.9 58.584 107.052 59.224 105.644 59.224C104.124 59.224 102.924 58.344 102.924 56.472V50.824H104.62V55.992C104.62 57.096 105.084 57.8 106.236 57.8C107.532 57.8 108.364 57.016 108.364 55.8V50.824ZM115.548 52.2H114.012V56.632C114.012 57.56 114.46 57.672 115.548 57.608V58.984C115.212 59.064 114.844 59.112 114.396 59.112C113.052 59.112 112.316 58.504 112.316 56.776V52.2H111.132V50.824H112.316V48.248H114.012V50.824H115.548V52.2ZM120.371 59.24C117.811 59.24 116.259 57.464 116.259 54.92C116.259 52.376 117.811 50.6 120.371 50.6C122.931 50.6 124.483 52.376 124.483 54.92C124.483 57.464 122.931 59.24 120.371 59.24ZM120.371 57.864C121.971 57.864 122.803 56.6 122.803 54.92C122.803 53.224 121.971 51.976 120.371 51.976C118.771 51.976 117.939 53.224 117.939 54.92C117.939 56.6 118.771 57.864 120.371 57.864ZM134.668 50.6C136.316 50.6 137.164 51.592 137.164 53.352V59H135.468V53.832C135.468 52.728 135.244 52.024 134.092 52.024C132.956 52.024 132.252 52.808 132.252 54.024V59H130.556V53.832C130.556 52.728 130.332 52.024 129.164 52.024C128.044 52.024 127.324 52.808 127.324 54.024V59H125.644V50.824H127.324V51.88H127.356C127.788 51.24 128.556 50.6 129.788 50.6C130.94 50.6 131.628 51.128 131.964 52.008H131.996C132.604 51.224 133.404 50.6 134.668 50.6ZM143.666 52.968C143.666 52.376 143.314 51.928 142.194 51.928C140.85 51.928 140.354 52.344 140.274 53.4H138.642C138.722 51.832 139.73 50.6 142.194 50.6C144.002 50.6 145.346 51.288 145.346 53.464V57.352C145.346 57.928 145.474 58.232 146.13 58.168V58.968C145.746 59.112 145.474 59.144 145.154 59.144C144.258 59.144 143.842 58.824 143.682 58.024H143.65C143.138 58.744 142.21 59.24 140.946 59.24C139.282 59.24 138.258 58.28 138.258 56.904C138.258 55.112 139.586 54.552 141.634 54.152C142.898 53.912 143.666 53.752 143.666 52.968ZM141.314 57.912C142.706 57.912 143.666 57.224 143.666 55.896V54.664C143.394 54.856 142.738 55.048 141.954 55.208C140.562 55.512 139.954 55.912 139.954 56.744C139.954 57.496 140.402 57.912 141.314 57.912ZM150.86 52.2H149.324V56.632C149.324 57.56 149.772 57.672 150.86 57.608V58.984C150.524 59.064 150.156 59.112 149.708 59.112C148.364 59.112 147.628 58.504 147.628 56.776V52.2H146.444V50.824H147.628V48.248H149.324V50.824H150.86V52.2ZM153.025 49.448C152.561 49.448 152.081 49.128 152.081 48.552C152.081 47.976 152.561 47.672 153.025 47.672C153.521 47.672 153.985 47.976 153.985 48.552C153.985 49.128 153.521 49.448 153.025 49.448ZM152.193 50.824H153.873V59H152.193V50.824ZM159.261 59.24C156.701 59.24 155.149 57.464 155.149 54.92C155.149 52.376 156.701 50.6 159.261 50.6C161.821 50.6 163.373 52.376 163.373 54.92C163.373 57.464 161.821 59.24 159.261 59.24ZM159.261 57.864C160.861 57.864 161.693 56.6 161.693 54.92C161.693 53.224 160.861 51.976 159.261 51.976C157.661 51.976 156.829 53.224 156.829 54.92C156.829 56.6 157.661 57.864 159.261 57.864ZM168.934 50.6C170.454 50.6 171.654 51.48 171.654 53.352V59H169.958V53.832C169.958 52.728 169.494 52.024 168.342 52.024C167.046 52.024 166.214 52.808 166.214 54.024V59H164.534V50.824H166.214V51.88H166.246C166.678 51.24 167.526 50.6 168.934 50.6Z" fill="black"/>
<path d="M44.9925 23.8C44.9925 22.2 44.1125 20.84 40.8325 20.84C36.9525 20.84 35.6725 21.96 35.4725 24.92H32.2725C32.4725 21 34.9125 18.04 40.8325 18.04C44.7125 18.04 48.1925 19.56 48.1925 24.48V34.4C48.1925 36 48.4725 36.88 50.5125 36.64V38.88C49.6725 39.16 49.2325 39.2 48.6325 39.2C46.7125 39.2 45.5525 38.68 44.9925 36.44H44.9125C43.6325 38.36 41.3525 39.56 37.9925 39.56C33.8725 39.56 31.2725 37.2 31.2725 33.76C31.2725 29.12 34.7125 27.92 39.9925 26.92C43.4325 26.28 44.9925 25.84 44.9925 23.8ZM38.3125 36.76C42.1125 36.76 44.9925 35.04 44.9925 31.12V27.72C44.3925 28.32 42.4325 28.88 40.2725 29.32C36.3125 30.16 34.4725 31.16 34.4725 33.6C34.4725 35.6 35.6725 36.76 38.3125 36.76ZM61.1831 26.88C64.8231 27.76 68.9431 28.36 68.9431 33.4C68.9431 37.12 65.5431 39.56 60.9031 39.56C54.6631 39.56 51.7831 36.6 51.5831 32.2H54.7831C54.9831 34.48 55.7831 36.76 60.9031 36.76C64.3831 36.76 65.7431 34.96 65.7431 33.6C65.7431 30.64 63.0631 30.48 60.1431 29.76C57.0231 29 52.3831 28.64 52.3831 23.84C52.3831 20.64 55.2231 18.04 60.0231 18.04C65.1031 18.04 67.8231 20.92 68.1431 24.44H64.9431C64.6231 22.88 63.8631 20.84 60.0231 20.84C57.1431 20.84 55.5831 22 55.5831 23.6C55.5831 26 58.3431 26.2 61.1831 26.88ZM81.1144 36.76C85.1944 36.76 86.7144 34.12 87.0744 32.72H90.2744C89.2344 36.52 86.3144 39.56 81.2344 39.56C75.0344 39.56 71.2744 35.2 71.2744 28.8C71.2744 22 75.1144 18.04 81.0744 18.04C87.4744 18.04 90.5944 22.4 90.5944 29.64H74.4744C74.4744 33.32 76.6744 36.76 81.1144 36.76ZM81.0744 20.84C77.2344 20.84 74.4744 23.56 74.4744 26.84H87.3944C87.3944 23.56 84.9144 20.84 81.0744 20.84ZM135.099 36.76C139.179 36.76 140.699 34.12 141.059 32.72H144.259C143.219 36.52 140.299 39.56 135.219 39.56C129.019 39.56 125.259 35.2 125.259 28.8C125.259 22 129.099 18.04 135.059 18.04C141.459 18.04 144.579 22.4 144.579 29.64H128.459C128.459 33.32 130.659 36.76 135.099 36.76ZM135.059 20.84C131.219 20.84 128.459 23.56 128.459 26.84H141.379C141.379 23.56 138.899 20.84 135.059 20.84ZM147.747 10.4H150.947V27.36L160.307 18.6H164.307L156.347 26.16L165.147 39H161.347L154.107 28.04L150.947 30.96V39H147.747V10.4Z" fill="black"/>
<path d="M10.4478 10.4H15.2078V34.96H29.4878V39H10.4478V10.4ZM109.53 39V14.44H100.37V10.4H123.41V14.44H114.29V39H109.53Z" fill="#FF0000"/>
<line x1="9" y1="44.5" x2="167" y2="44.5" stroke="black"/>
</svg>
