<svg width="705" height="56" viewBox="0 0 705 56" fill="none" xmlns="http://www.w3.org/2000/svg">
<path d="M0 5.00012H705L676 56.0001H0V5.00012Z" fill="#383DAD"/>
<path d="M13.416 18.3921C14.904 17.9121 16.296 18.7281 16.296 20.8401C16.296 22.6641 15.144 23.6241 13.704 23.6241C11.928 23.6241 11.016 22.1361 11.016 19.8801C11.016 17.3361 12.072 13.2561 15.816 12.5841V14.9841C14.328 15.3201 13.416 16.6161 13.416 18.3921ZM20.472 18.3921C21.96 17.9121 23.352 18.7281 23.352 20.8401C23.352 22.6641 22.2 23.6241 20.76 23.6241C18.984 23.6241 18.072 22.1361 18.072 19.8801C18.072 17.3361 19.128 13.2561 22.872 12.5841V14.9841C21.384 15.3201 20.472 16.6161 20.472 18.3921ZM26.5001 12.6801H31.0601L37.5881 40.8081H37.6841L45.3641 12.6801H50.1641L57.8441 40.8081H57.9401L64.4681 12.6801H69.0281L60.5321 47.0001H55.7321L47.8121 17.5761H47.7161L39.7961 47.0001H34.9961L26.5001 12.6801ZM84.3431 21.8481C88.8071 21.8481 92.5511 24.2961 92.5511 29.9121V47.0001H88.7111V30.8721C88.7111 27.7041 87.2231 25.2081 83.3831 25.2081C79.0631 25.2081 76.1831 27.9441 76.1831 31.7361V47.0001H72.3431V12.6801H76.1831V25.4481H76.2791C77.5751 23.7201 80.1671 21.8481 84.3431 21.8481ZM108.119 44.3121C113.015 44.3121 114.839 41.1441 115.271 39.4641H119.111C117.863 44.0241 114.359 47.6721 108.263 47.6721C100.823 47.6721 96.3105 42.4401 96.3105 34.7601C96.3105 26.6001 100.919 21.8481 108.071 21.8481C115.751 21.8481 119.495 27.0801 119.495 35.7681H100.151C100.151 40.1841 102.791 44.3121 108.119 44.3121ZM108.071 25.2081C103.463 25.2081 100.151 28.4721 100.151 32.4081H115.655C115.655 28.4721 112.679 25.2081 108.071 25.2081ZM134 21.8481C134.912 21.8481 135.584 21.8961 136.256 21.9921V25.8321H136.16C130.832 24.9681 127.136 28.7121 127.136 33.9441V47.0001H123.296V22.5201H127.136V27.3681H127.232C128.528 24.1521 130.496 21.8481 134 21.8481ZM149.228 44.3121C154.124 44.3121 155.948 41.1441 156.38 39.4641H160.22C158.972 44.0241 155.468 47.6721 149.372 47.6721C141.932 47.6721 137.42 42.4401 137.42 34.7601C137.42 26.6001 142.028 21.8481 149.18 21.8481C156.86 21.8481 160.604 27.0801 160.604 35.7681H141.26C141.26 40.1841 143.9 44.3121 149.228 44.3121ZM149.18 25.2081C144.572 25.2081 141.26 28.4721 141.26 32.4081H156.764C156.764 28.4721 153.788 25.2081 149.18 25.2081ZM171.855 12.6801H176.415L186.207 42.6801H186.255L196.047 12.6801H200.607L188.607 47.0001H183.855L171.855 12.6801ZM206.134 17.7681C205.078 17.7681 203.734 16.9521 203.734 15.4641C203.734 13.9761 205.078 13.1601 206.134 13.1601C207.238 13.1601 208.534 13.9761 208.534 15.4641C208.534 16.9521 207.238 17.7681 206.134 17.7681ZM204.214 22.5201H208.054V47.0001H204.214V22.5201ZM223.748 32.4561C228.116 33.5121 233.06 34.2321 233.06 40.2801C233.06 44.7441 228.98 47.6721 223.412 47.6721C215.924 47.6721 212.468 44.1201 212.228 38.8401H216.068C216.308 41.5761 217.268 44.3121 223.412 44.3121C227.588 44.3121 229.22 42.1521 229.22 40.5201C229.22 36.9681 226.004 36.7761 222.5 35.9121C218.756 35.0001 213.188 34.5681 213.188 28.8081C213.188 24.9681 216.596 21.8481 222.356 21.8481C228.452 21.8481 231.716 25.3041 232.1 29.5281H228.26C227.876 27.6561 226.964 25.2081 222.356 25.2081C218.9 25.2081 217.028 26.6001 217.028 28.5201C217.028 31.4001 220.34 31.6401 223.748 32.4561ZM239.181 17.7681C238.125 17.7681 236.781 16.9521 236.781 15.4641C236.781 13.9761 238.125 13.1601 239.181 13.1601C240.285 13.1601 241.581 13.9761 241.581 15.4641C241.581 16.9521 240.285 17.7681 239.181 17.7681ZM237.261 22.5201H241.101V47.0001H237.261V22.5201ZM257.467 47.6721C249.979 47.6721 245.467 42.3921 245.467 34.7601C245.467 27.1281 249.979 21.8481 257.467 21.8481C264.907 21.8481 269.419 27.1281 269.419 34.7601C269.419 42.3921 264.907 47.6721 257.467 47.6721ZM257.467 44.3121C262.939 44.3121 265.579 39.9921 265.579 34.7601C265.579 29.5281 262.939 25.2081 257.467 25.2081C251.947 25.2081 249.307 29.5281 249.307 34.7601C249.307 39.9921 251.947 44.3121 257.467 44.3121ZM285.296 21.8481C289.76 21.8481 293.504 24.2961 293.504 29.9121V47.0001H289.664V30.8721C289.664 27.7041 288.176 25.2081 284.336 25.2081C280.016 25.2081 277.136 27.9441 277.136 31.7361V47.0001H273.296V22.5201H277.136V25.4481H277.232C278.528 23.7201 281.12 21.8481 285.296 21.8481ZM308.841 47.0001V12.6801H314.745L325.497 41.1921H325.593L336.345 12.6801H342.249V47.0001H337.929V18.7761H337.833L327.465 47.0001H323.625L313.257 18.7761H313.161V47.0001H308.841ZM358.994 44.3121C363.89 44.3121 365.714 41.1441 366.146 39.4641H369.986C368.738 44.0241 365.234 47.6721 359.138 47.6721C351.698 47.6721 347.186 42.4401 347.186 34.7601C347.186 26.6001 351.794 21.8481 358.946 21.8481C366.626 21.8481 370.37 27.0801 370.37 35.7681H351.026C351.026 40.1841 353.666 44.3121 358.994 44.3121ZM358.946 25.2081C354.338 25.2081 351.026 28.4721 351.026 32.4081H366.53C366.53 28.4721 363.554 25.2081 358.946 25.2081ZM384.587 44.3121C389.483 44.3121 391.307 41.1441 391.739 39.4641H395.579C394.331 44.0241 390.827 47.6721 384.731 47.6721C377.291 47.6721 372.779 42.4401 372.779 34.7601C372.779 26.6001 377.387 21.8481 384.539 21.8481C392.219 21.8481 395.963 27.0801 395.963 35.7681H376.619C376.619 40.1841 379.259 44.3121 384.587 44.3121ZM384.539 25.2081C379.931 25.2081 376.619 28.4721 376.619 32.4081H392.123C392.123 28.4721 389.147 25.2081 384.539 25.2081ZM409.952 25.8801H405.152V40.6161C405.152 43.4001 406.688 43.8801 409.952 43.6401V47.0001C409.088 47.1921 408.08 47.2881 407.072 47.2881C403.808 47.2881 401.312 45.9921 401.312 41.0001V25.8801H397.712V22.5201H401.312V14.3601H405.152V22.5201H409.952V25.8801ZM423.904 32.4561C428.272 33.5121 433.216 34.2321 433.216 40.2801C433.216 44.7441 429.136 47.6721 423.568 47.6721C416.08 47.6721 412.624 44.1201 412.384 38.8401H416.224C416.464 41.5761 417.424 44.3121 423.568 44.3121C427.744 44.3121 429.376 42.1521 429.376 40.5201C429.376 36.9681 426.16 36.7761 422.656 35.9121C418.912 35.0001 413.344 34.5681 413.344 28.8081C413.344 24.9681 416.752 21.8481 422.512 21.8481C428.608 21.8481 431.872 25.3041 432.256 29.5281H428.416C428.032 27.6561 427.12 25.2081 422.512 25.2081C419.056 25.2081 417.184 26.6001 417.184 28.5201C417.184 31.4001 420.496 31.6401 423.904 32.4561ZM466.994 38.4081H451.874L448.85 47.0001H444.386L457.058 12.6801H461.858L474.482 47.0001H470.018L466.994 38.4081ZM453.314 34.5681H465.602L459.506 16.6641H459.41L453.314 34.5681ZM487.326 32.4561C491.694 33.5121 496.638 34.2321 496.638 40.2801C496.638 44.7441 492.558 47.6721 486.99 47.6721C479.502 47.6721 476.046 44.1201 475.806 38.8401H479.646C479.886 41.5761 480.846 44.3121 486.99 44.3121C491.166 44.3121 492.798 42.1521 492.798 40.5201C492.798 36.9681 489.582 36.7761 486.078 35.9121C482.334 35.0001 476.766 34.5681 476.766 28.8081C476.766 24.9681 480.174 21.8481 485.934 21.8481C492.03 21.8481 495.294 25.3041 495.678 29.5281H491.838C491.454 27.6561 490.542 25.2081 485.934 25.2081C482.478 25.2081 480.606 26.6001 480.606 28.5201C480.606 31.4001 483.918 31.6401 487.326 32.4561ZM512.071 21.8481C518.119 21.8481 523.015 26.6961 523.015 34.7601C523.015 42.8241 518.119 47.6721 512.071 47.6721C508.039 47.6721 505.735 45.9441 504.295 43.8321H504.199V55.2561H500.359V22.5201H504.199V25.5441H504.295C505.735 23.6721 508.039 21.8481 512.071 21.8481ZM511.591 44.3121C516.631 44.3121 519.175 39.5601 519.175 34.7601C519.175 29.9601 516.631 25.2081 511.591 25.2081C507.031 25.2081 504.199 29.0001 504.199 34.7601C504.199 40.5201 507.031 44.3121 511.591 44.3121ZM529.431 17.7681C528.375 17.7681 527.031 16.9521 527.031 15.4641C527.031 13.9761 528.375 13.1601 529.431 13.1601C530.535 13.1601 531.831 13.9761 531.831 15.4641C531.831 16.9521 530.535 17.7681 529.431 17.7681ZM527.511 22.5201H531.351V47.0001H527.511V22.5201ZM547.813 21.8481C548.725 21.8481 549.397 21.8961 550.069 21.9921V25.8321H549.973C544.645 24.9681 540.949 28.7121 540.949 33.9441V47.0001H537.109V22.5201H540.949V27.3681H541.045C542.341 24.1521 544.309 21.8481 547.813 21.8481ZM567.6 28.7601C567.6 26.8401 566.544 25.2081 562.608 25.2081C557.952 25.2081 556.416 26.5521 556.176 30.1041H552.336C552.576 25.4001 555.504 21.8481 562.608 21.8481C567.264 21.8481 571.44 23.6721 571.44 29.5761V41.4801C571.44 43.4001 571.776 44.4561 574.224 44.1681V46.8561C573.216 47.1921 572.688 47.2401 571.968 47.2401C569.664 47.2401 568.272 46.6161 567.6 43.9281H567.504C565.968 46.2321 563.232 47.6721 559.2 47.6721C554.256 47.6721 551.136 44.8401 551.136 40.7121C551.136 35.1441 555.264 33.7041 561.6 32.5041C565.728 31.7361 567.6 31.2081 567.6 28.7601ZM559.584 44.3121C564.144 44.3121 567.6 42.2481 567.6 37.5441V33.4641C566.88 34.1841 564.528 34.8561 561.936 35.3841C557.184 36.3921 554.976 37.5921 554.976 40.5201C554.976 42.9201 556.416 44.3121 559.584 44.3121ZM587.28 25.8801H582.48V40.6161C582.48 43.4001 584.016 43.8801 587.28 43.6401V47.0001C586.416 47.1921 585.408 47.2881 584.4 47.2881C581.136 47.2881 578.64 45.9921 578.64 41.0001V25.8801H575.04V22.5201H578.64V14.3601H582.48V22.5201H587.28V25.8801ZM593.696 17.7681C592.64 17.7681 591.296 16.9521 591.296 15.4641C591.296 13.9761 592.64 13.1601 593.696 13.1601C594.8 13.1601 596.096 13.9761 596.096 15.4641C596.096 16.9521 594.8 17.7681 593.696 17.7681ZM591.776 22.5201H595.616V47.0001H591.776V22.5201ZM611.982 47.6721C604.494 47.6721 599.982 42.3921 599.982 34.7601C599.982 27.1281 604.494 21.8481 611.982 21.8481C619.422 21.8481 623.934 27.1281 623.934 34.7601C623.934 42.3921 619.422 47.6721 611.982 47.6721ZM611.982 44.3121C617.454 44.3121 620.094 39.9921 620.094 34.7601C620.094 29.5281 617.454 25.2081 611.982 25.2081C606.462 25.2081 603.822 29.5281 603.822 34.7601C603.822 39.9921 606.462 44.3121 611.982 44.3121ZM639.812 21.8481C644.276 21.8481 648.02 24.2961 648.02 29.9121V47.0001H644.18V30.8721C644.18 27.7041 642.692 25.2081 638.852 25.2081C634.532 25.2081 631.652 27.9441 631.652 31.7361V47.0001H627.812V22.5201H631.652V25.4481H631.748C633.044 23.7201 635.636 21.8481 639.812 21.8481ZM654.209 17.5761C652.721 18.0561 651.329 17.2401 651.329 15.1281C651.329 13.3041 652.48 12.3441 653.921 12.3441C655.697 12.3441 656.609 13.8321 656.609 16.0881C656.609 18.6321 655.553 22.7121 651.809 23.3841V20.9841C653.297 20.6481 654.209 19.3521 654.209 17.5761ZM661.265 17.5761C659.777 18.0561 658.385 17.2401 658.385 15.1281C658.385 13.3041 659.537 12.3441 660.977 12.3441C662.753 12.3441 663.665 13.8321 663.665 16.0881C663.665 18.6321 662.609 22.7121 658.865 23.3841V20.9841C660.353 20.6481 661.265 19.3521 661.265 17.5761Z" fill="white"/>
</svg>
