<svg width="249" height="71" viewBox="0 0 249 71" fill="none" xmlns="http://www.w3.org/2000/svg">
<path d="M40.7186 38.184C40.7186 39.016 40.9106 39.736 41.2946 40.344C41.7106 40.952 42.2706 41.416 42.9746 41.736C43.7106 42.024 44.5426 42.168 45.4706 42.168C46.6546 42.168 47.7106 41.928 48.6386 41.448C49.5986 40.968 50.3506 40.296 50.8946 39.432C51.4706 38.536 51.7586 37.512 51.7586 36.36L52.5266 39.24C52.5266 40.648 52.0946 41.816 51.2306 42.744C50.3986 43.672 49.3586 44.36 48.1106 44.808C46.8946 45.256 45.6786 45.48 44.4626 45.48C43.1186 45.48 41.8546 45.208 40.6706 44.664C39.5186 44.088 38.5906 43.272 37.8866 42.216C37.1826 41.16 36.8306 39.88 36.8306 38.376C36.8306 36.232 37.5826 34.52 39.0866 33.24C40.6226 31.928 42.7506 31.272 45.4706 31.272C47.0706 31.272 48.3986 31.464 49.4546 31.848C50.5426 32.2 51.4066 32.616 52.0466 33.096C52.6866 33.544 53.1186 33.912 53.3426 34.2V36.456C52.2226 35.688 51.0706 35.144 49.8866 34.824C48.7026 34.472 47.4386 34.296 46.0946 34.296C44.8466 34.296 43.8226 34.456 43.0226 34.776C42.2546 35.096 41.6786 35.544 41.2946 36.12C40.9106 36.696 40.7186 37.384 40.7186 38.184ZM40.1426 28.008L38.2706 25.176C39.1026 24.568 40.2386 23.96 41.6786 23.352C43.1506 22.744 44.9106 22.44 46.9586 22.44C48.6866 22.44 50.1906 22.712 51.4706 23.256C52.7826 23.768 53.7906 24.52 54.4946 25.512C55.2306 26.504 55.5986 27.72 55.5986 29.16V45H51.7586V29.688C51.7586 28.92 51.6306 28.296 51.3746 27.816C51.1186 27.304 50.7506 26.904 50.2706 26.616C49.8226 26.328 49.2946 26.12 48.6866 25.992C48.0786 25.864 47.4386 25.8 46.7666 25.8C45.6786 25.8 44.6866 25.928 43.7906 26.184C42.9266 26.44 42.1906 26.744 41.5826 27.096C40.9746 27.448 40.4946 27.752 40.1426 28.008Z" fill="#383DAD"/>
<path d="M63.012 38.232C63.46 38.904 63.972 39.528 64.548 40.104C65.124 40.68 65.78 41.144 66.516 41.496C67.284 41.816 68.116 41.976 69.012 41.976C70.1 41.976 70.948 41.736 71.556 41.256C72.196 40.744 72.516 40.056 72.516 39.192C72.516 38.424 72.26 37.784 71.748 37.272C71.268 36.728 70.644 36.28 69.876 35.928C69.108 35.544 68.292 35.192 67.428 34.872C66.468 34.488 65.492 34.04 64.5 33.528C63.54 32.984 62.724 32.296 62.052 31.464C61.412 30.6 61.092 29.528 61.092 28.248C61.092 26.936 61.428 25.848 62.1 24.984C62.804 24.12 63.7 23.48 64.788 23.064C65.908 22.648 67.06 22.44 68.244 22.44C69.428 22.44 70.532 22.632 71.556 23.016C72.612 23.4 73.54 23.912 74.34 24.552C75.14 25.192 75.764 25.928 76.212 26.76L73.14 28.728C72.532 27.896 71.764 27.208 70.836 26.664C69.94 26.12 68.916 25.848 67.764 25.848C66.964 25.848 66.276 26.024 65.7 26.376C65.124 26.728 64.836 27.272 64.836 28.008C64.836 28.584 65.06 29.096 65.508 29.544C65.956 29.992 66.532 30.392 67.236 30.744C67.94 31.096 68.676 31.432 69.444 31.752C70.724 32.264 71.892 32.824 72.948 33.432C74.004 34.008 74.836 34.712 75.444 35.544C76.084 36.376 76.404 37.448 76.404 38.76C76.404 40.68 75.7 42.28 74.292 43.56C72.916 44.84 71.092 45.48 68.82 45.48C67.348 45.48 66.02 45.224 64.836 44.712C63.652 44.168 62.644 43.48 61.812 42.648C61.012 41.816 60.404 40.968 59.988 40.104L63.012 38.232Z" fill="#383DAD"/>
<path d="M90.0033 45.48C87.9553 45.48 86.1313 45 84.5313 44.04C82.9633 43.048 81.7313 41.688 80.8353 39.96C79.9713 38.232 79.5393 36.232 79.5393 33.96C79.5393 31.656 79.9873 29.64 80.8833 27.912C81.8113 26.184 83.0913 24.84 84.7233 23.88C86.3873 22.92 88.3073 22.44 90.4833 22.44C92.6593 22.44 94.5153 22.904 96.0513 23.832C97.6193 24.728 98.8193 26.024 99.6513 27.72C100.483 29.416 100.899 31.432 100.899 33.768C100.899 33.992 100.883 34.232 100.851 34.488C100.851 34.712 100.851 34.856 100.851 34.92H81.9873V31.656H97.8273L96.2913 33.864C96.3873 33.704 96.4833 33.464 96.5793 33.144C96.6753 32.792 96.7233 32.504 96.7233 32.28C96.7233 30.968 96.4513 29.832 95.9073 28.872C95.3953 27.912 94.6753 27.16 93.7473 26.616C92.8193 26.072 91.7313 25.8 90.4833 25.8C89.0113 25.8 87.7473 26.12 86.6913 26.76C85.6673 27.368 84.8673 28.264 84.2913 29.448C83.7473 30.6 83.4593 32.024 83.4273 33.72C83.4273 35.448 83.6993 36.92 84.2433 38.136C84.7873 39.352 85.5873 40.28 86.6433 40.92C87.6993 41.56 88.9793 41.88 90.4833 41.88C91.9873 41.88 93.3153 41.56 94.4673 40.92C95.6193 40.248 96.5953 39.24 97.3953 37.896L100.515 39.864C99.3633 41.72 97.9073 43.128 96.1473 44.088C94.4193 45.016 92.3713 45.48 90.0033 45.48Z" fill="#383DAD"/>
<path d="M143.488 45.48C141.44 45.48 139.616 45 138.016 44.04C136.448 43.048 135.216 41.688 134.32 39.96C133.456 38.232 133.024 36.232 133.024 33.96C133.024 31.656 133.472 29.64 134.368 27.912C135.296 26.184 136.576 24.84 138.208 23.88C139.872 22.92 141.792 22.44 143.968 22.44C146.144 22.44 148 22.904 149.536 23.832C151.104 24.728 152.304 26.024 153.136 27.72C153.968 29.416 154.384 31.432 154.384 33.768C154.384 33.992 154.368 34.232 154.336 34.488C154.336 34.712 154.336 34.856 154.336 34.92H135.472V31.656H151.312L149.776 33.864C149.872 33.704 149.968 33.464 150.064 33.144C150.16 32.792 150.208 32.504 150.208 32.28C150.208 30.968 149.936 29.832 149.392 28.872C148.88 27.912 148.16 27.16 147.232 26.616C146.304 26.072 145.216 25.8 143.968 25.8C142.496 25.8 141.232 26.12 140.176 26.76C139.152 27.368 138.352 28.264 137.776 29.448C137.232 30.6 136.944 32.024 136.912 33.72C136.912 35.448 137.184 36.92 137.728 38.136C138.272 39.352 139.072 40.28 140.128 40.92C141.184 41.56 142.464 41.88 143.968 41.88C145.472 41.88 146.8 41.56 147.952 40.92C149.104 40.248 150.08 39.24 150.88 37.896L154 39.864C152.848 41.72 151.392 43.128 149.632 44.088C147.904 45.016 145.856 45.48 143.488 45.48Z" fill="#383DAD"/>
<path d="M159.407 7.56001H163.247V45H159.407V7.56001ZM171.407 22.92H176.207L166.607 32.04L177.167 45H172.367L161.807 32.04L171.407 22.92Z" fill="#383DAD"/>
<path d="M3.73597 0.200012H14.552V35.72H32.536V45H3.73597V0.200012Z" fill="#FF3131"/>
<path d="M104.256 9.86401V0.200012H139.712V9.86401H127.36V45H116.544V9.86401H104.256Z" fill="#FF3131"/>
<path d="M0.219971 67V52.7H2.87997L9.31997 63.44H9.35997V52.7H11.74V67H9.09997L2.63997 56.3H2.59997V67H0.219971Z" fill="black"/>
<path d="M18.6801 65.58C20.4201 65.58 21.1201 64.5 21.3001 63.88H23.4001C22.8801 65.82 21.3601 67.3 18.7401 67.3C15.5601 67.3 13.6201 65.1 13.6201 61.9C13.6201 58.58 15.5601 56.5 18.6401 56.5C21.9401 56.5 23.5601 58.8 23.5601 62.44H15.7201C15.7201 64.16 16.8201 65.58 18.6801 65.58ZM18.6401 58.16C16.9401 58.16 15.7201 59.3 15.7201 60.88H21.4601C21.4601 59.3 20.3401 58.16 18.6401 58.16Z" fill="black"/>
<path d="M29.6847 58.5H27.7647V64.04C27.7647 65.2 28.3247 65.34 29.6847 65.26V66.98C29.2647 67.08 28.8047 67.14 28.2447 67.14C26.5647 67.14 25.6447 66.38 25.6447 64.22V58.5H24.1647V56.78H25.6447V53.56H27.7647V56.78H29.6847V58.5Z" fill="black"/>
<path d="M30.5048 56.78H32.7248L34.8048 64.54H34.8448L36.9248 56.78H38.9848L41.0848 64.54H41.1248L43.1848 56.78H45.4048L42.2848 67H40.1648L37.9648 59.2H37.9248L35.7448 67H33.6448L30.5048 56.78Z" fill="black"/>
<path d="M50.8109 67.3C47.6109 67.3 45.6709 65.08 45.6709 61.9C45.6709 58.72 47.6109 56.5 50.8109 56.5C54.0109 56.5 55.9509 58.72 55.9509 61.9C55.9509 65.08 54.0109 67.3 50.8109 67.3ZM50.8109 65.58C52.8109 65.58 53.8509 64 53.8509 61.9C53.8509 59.78 52.8109 58.22 50.8109 58.22C48.8109 58.22 47.7709 59.78 47.7709 61.9C47.7709 64 48.8109 65.58 50.8109 65.58Z" fill="black"/>
<path d="M62.2623 56.54C62.6223 56.54 62.8823 56.56 63.1823 56.6V58.58H63.1423C61.1223 58.24 59.5023 59.6 59.5023 61.78V67H57.4023V56.78H59.5023V58.7H59.5423C60.0823 57.42 60.9223 56.54 62.2623 56.54Z" fill="black"/>
<path d="M64.5312 52.7H66.6312V60.88L70.7912 56.78H73.3712L69.4912 60.58L73.7912 67H71.2712L68.0512 61.96L66.6312 63.3V67H64.5312V52.7Z" fill="black"/>
<path d="M75.9456 55.06C75.3656 55.06 74.7656 54.66 74.7656 53.94C74.7656 53.22 75.3656 52.84 75.9456 52.84C76.5656 52.84 77.1456 53.22 77.1456 53.94C77.1456 54.66 76.5656 55.06 75.9456 55.06ZM74.9056 56.78H77.0056V67H74.9056V56.78Z" fill="black"/>
<path d="M84.6406 56.5C86.5406 56.5 88.0406 57.6 88.0406 59.94V67H85.9206V60.54C85.9206 59.16 85.3406 58.28 83.9006 58.28C82.2806 58.28 81.2406 59.26 81.2406 60.78V67H79.1406V56.78H81.2406V58.1H81.2806C81.8206 57.3 82.8806 56.5 84.6406 56.5Z" fill="black"/>
<path d="M97.0409 56.78H99.1409V66.3C99.1409 69.24 97.3609 70.54 94.4609 70.54C91.5209 70.54 89.9009 69 89.6809 67.28H91.8009C92.0009 68.18 92.7209 68.86 94.3809 68.86C96.1409 68.86 97.0409 68.06 97.0409 66.22V64.98H97.0009C96.4609 65.74 95.5209 66.5 93.9009 66.5C91.3409 66.5 89.4209 64.72 89.4209 61.5C89.4209 58.26 91.3409 56.5 93.9009 56.5C95.5209 56.5 96.4609 57.26 97.0009 57.98H97.0409V56.78ZM94.3009 64.78C96.0009 64.78 97.0209 63.66 97.0209 61.5C97.0209 59.34 96.0009 58.22 94.3009 58.22C92.4609 58.22 91.5209 59.6 91.5209 61.5C91.5209 63.38 92.4609 64.78 94.3009 64.78Z" fill="black"/>
<path d="M109.361 60.82C111.241 61.26 113.281 61.68 113.281 64.12C113.281 66.08 111.601 67.3 109.121 67.3C105.821 67.3 104.401 65.76 104.301 63.6H106.341C106.441 64.7 106.921 65.64 109.081 65.64C110.541 65.64 111.161 64.92 111.161 64.28C111.161 63 109.941 62.9 108.441 62.54C106.821 62.16 104.621 61.84 104.621 59.52C104.621 57.84 106.101 56.5 108.661 56.5C111.441 56.5 112.761 58 112.901 59.78H110.861C110.721 58.98 110.321 58.16 108.681 58.16C107.421 58.16 106.741 58.64 106.741 59.36C106.741 60.4 107.881 60.48 109.361 60.82Z" fill="black"/>
<path d="M119.444 67.3C116.244 67.3 114.304 65.08 114.304 61.9C114.304 58.72 116.244 56.5 119.444 56.5C122.644 56.5 124.584 58.72 124.584 61.9C124.584 65.08 122.644 67.3 119.444 67.3ZM119.444 65.58C121.444 65.58 122.484 64 122.484 61.9C122.484 59.78 121.444 58.22 119.444 58.22C117.444 58.22 116.404 59.78 116.404 61.9C116.404 64 117.444 65.58 119.444 65.58Z" fill="black"/>
<path d="M126.075 52.7H128.195V67H126.075V52.7Z" fill="black"/>
<path d="M136.954 56.78H139.054V67H136.954V65.68H136.914C136.374 66.48 135.314 67.28 133.554 67.28C131.654 67.28 130.154 66.18 130.154 63.84V56.78H132.274V63.24C132.274 64.62 132.854 65.5 134.294 65.5C135.914 65.5 136.954 64.52 136.954 63V56.78Z" fill="black"/>
<path d="M145.935 58.5H144.015V64.04C144.015 65.2 144.575 65.34 145.935 65.26V66.98C145.515 67.08 145.055 67.14 144.495 67.14C142.815 67.14 141.895 66.38 141.895 64.22V58.5H140.415V56.78H141.895V53.56H144.015V56.78H145.935V58.5Z" fill="black"/>
<path d="M148.641 55.06C148.061 55.06 147.461 54.66 147.461 53.94C147.461 53.22 148.061 52.84 148.641 52.84C149.261 52.84 149.841 53.22 149.841 53.94C149.841 54.66 149.261 55.06 148.641 55.06ZM147.601 56.78H149.701V67H147.601V56.78Z" fill="black"/>
<path d="M156.436 67.3C153.236 67.3 151.296 65.08 151.296 61.9C151.296 58.72 153.236 56.5 156.436 56.5C159.636 56.5 161.576 58.72 161.576 61.9C161.576 65.08 159.636 67.3 156.436 67.3ZM156.436 65.58C158.436 65.58 159.476 64 159.476 61.9C159.476 59.78 158.436 58.22 156.436 58.22C154.436 58.22 153.396 59.78 153.396 61.9C153.396 64 154.436 65.58 156.436 65.58Z" fill="black"/>
<path d="M168.527 56.5C170.427 56.5 171.927 57.6 171.927 59.94V67H169.807V60.54C169.807 59.16 169.227 58.28 167.787 58.28C166.167 58.28 165.127 59.26 165.127 60.78V67H163.027V56.78H165.127V58.1H165.167C165.707 57.3 166.767 56.5 168.527 56.5Z" fill="black"/>
<path d="M182.956 56.5C185.556 56.5 187.496 58.54 187.496 61.9C187.496 65.26 185.556 67.3 182.956 67.3C181.356 67.3 180.356 66.54 179.816 65.78H179.776V70.48H177.656V56.78H179.776V57.98H179.816C180.356 57.26 181.356 56.5 182.956 56.5ZM182.556 65.58C184.396 65.58 185.376 63.9 185.376 61.9C185.376 59.9 184.396 58.22 182.556 58.22C180.856 58.22 179.796 59.62 179.796 61.9C179.796 64.16 180.856 65.58 182.556 65.58Z" fill="black"/>
<path d="M193.883 56.54C194.243 56.54 194.503 56.56 194.803 56.6V58.58H194.763C192.743 58.24 191.123 59.6 191.123 61.78V67H189.023V56.78H191.123V58.7H191.163C191.703 57.42 192.543 56.54 193.883 56.54Z" fill="black"/>
<path d="M200.42 67.3C197.22 67.3 195.28 65.08 195.28 61.9C195.28 58.72 197.22 56.5 200.42 56.5C203.62 56.5 205.56 58.72 205.56 61.9C205.56 65.08 203.62 67.3 200.42 67.3ZM200.42 65.58C202.42 65.58 203.46 64 203.46 61.9C203.46 59.78 202.42 58.22 200.42 58.22C198.42 58.22 197.38 59.78 197.38 61.9C197.38 64 198.42 65.58 200.42 65.58Z" fill="black"/>
<path d="M205.758 56.78H207.978L210.558 64.78H210.578L213.158 56.78H215.378L211.758 67H209.378L205.758 56.78Z" fill="black"/>
<path d="M217.567 55.06C216.987 55.06 216.387 54.66 216.387 53.94C216.387 53.22 216.987 52.84 217.567 52.84C218.187 52.84 218.767 53.22 218.767 53.94C218.767 54.66 218.187 55.06 217.567 55.06ZM216.527 56.78H218.627V67H216.527V56.78Z" fill="black"/>
<path d="M227.942 52.7H230.042V67H227.942V65.82H227.902C227.362 66.52 226.362 67.3 224.782 67.3C222.162 67.3 220.222 65.26 220.222 61.9C220.222 58.54 222.162 56.5 224.782 56.5C226.362 56.5 227.362 57.24 227.902 58.02H227.942V52.7ZM225.142 65.58C226.862 65.58 227.922 64.16 227.922 61.9C227.922 59.62 226.862 58.22 225.142 58.22C223.302 58.22 222.322 59.9 222.322 61.9C222.322 63.9 223.302 65.58 225.142 65.58Z" fill="black"/>
<path d="M236.571 65.58C238.311 65.58 239.011 64.5 239.191 63.88H241.291C240.771 65.82 239.251 67.3 236.631 67.3C233.451 67.3 231.511 65.1 231.511 61.9C231.511 58.58 233.451 56.5 236.531 56.5C239.831 56.5 241.451 58.8 241.451 62.44H233.611C233.611 64.16 234.711 65.58 236.571 65.58ZM236.531 58.16C234.831 58.16 233.611 59.3 233.611 60.88H239.351C239.351 59.3 238.231 58.16 236.531 58.16Z" fill="black"/>
<path d="M247.751 56.54C248.111 56.54 248.371 56.56 248.671 56.6V58.58H248.631C246.611 58.24 244.991 59.6 244.991 61.78V67H242.891V56.78H244.991V58.7H245.031C245.571 57.42 246.411 56.54 247.751 56.54Z" fill="black"/>
</svg>
